<svg width="32" height="32" viewBox="0 0 32 32" fill="none" xmlns="http://www.w3.org/2000/svg">
<path d="M3.72999 21.8597C5.81499 23.6647 9.12999 25.9847 12.035 25.5447C12.34 25.4997 12.64 25.4197 12.935 25.3197C12.475 24.7047 12.07 24.0997 11.725 23.5497C10.63 21.7997 10.285 19.7897 10.43 17.8697C9.39999 18.0747 8.46999 18.5197 7.69499 19.1397C7.36999 19.3997 6.87999 19.2047 6.95499 18.7897C7.27499 17.1147 8.60499 15.7447 10.365 15.4747C10.495 15.4547 10.63 15.4397 10.76 15.4347L11.73 8.86973C11.83 8.17973 12.13 7.23473 12.98 6.57473C13.91 5.85973 15.525 5.04973 18.16 4.80973C18.12 4.77473 18.08 4.73973 18.04 4.70473C17.03 3.92473 14.42 2.62473 8.78499 3.47973C3.14999 4.33473 1.02499 6.34973 0.284989 7.39473C-1.12534e-05 7.79473 -0.0400113 8.29973 0.0299887 8.78973L1.23999 17.0047C1.51499 18.8697 2.31499 20.6347 3.72999 21.8647V21.8597ZM8.11499 10.8797C8.33499 10.7247 8.65499 10.7797 8.70499 11.0447C8.70999 11.0697 8.71499 11.0997 8.71999 11.1247C8.87999 12.2147 8.13999 13.2247 7.06499 13.3897C5.98999 13.5547 4.98999 12.7997 4.82999 11.7147C4.82499 11.6897 4.82499 11.6597 4.81999 11.6347C4.78999 11.3647 5.07999 11.2147 5.33499 11.2997C5.78499 11.4497 6.27499 11.4947 6.76999 11.4197C7.26499 11.3447 7.72499 11.1547 8.10999 10.8797H8.11499ZM13.08 22.6997C14.55 25.0447 17.055 28.2447 19.96 28.6847C22.865 29.1247 26.185 26.8097 28.265 24.9997C29.68 23.7747 30.48 22.0097 30.755 20.1397L31.965 11.9247C32.035 11.4347 31.995 10.9297 31.71 10.5297C30.97 9.48473 28.845 7.46973 23.21 6.61473C17.575 5.75973 14.97 7.05973 13.96 7.83973C13.57 8.13973 13.385 8.60973 13.315 9.09973L12.105 17.3147C11.83 19.1797 12.085 21.1047 13.085 22.6997H13.08ZM20.225 14.9647C19.84 14.6897 19.385 14.4997 18.885 14.4247C18.385 14.3497 17.895 14.3947 17.45 14.5447C17.195 14.6297 16.905 14.4797 16.935 14.2097C16.94 14.1847 16.94 14.1547 16.945 14.1297C17.105 13.0397 18.105 12.2897 19.18 12.4547C20.255 12.6197 20.995 13.6297 20.835 14.7197C20.83 14.7447 20.825 14.7747 20.82 14.7997C20.77 15.0647 20.45 15.1197 20.23 14.9647H20.225ZM27.035 15.7397C26.985 16.0047 26.665 16.0597 26.445 15.9047C26.06 15.6297 25.605 15.4397 25.105 15.3647C24.605 15.2897 24.115 15.3347 23.67 15.4847C23.415 15.5697 23.125 15.4197 23.155 15.1497C23.16 15.1247 23.16 15.0947 23.165 15.0697C23.325 13.9797 24.325 13.2297 25.4 13.3947C26.475 13.5597 27.215 14.5697 27.055 15.6597C27.05 15.6847 27.045 15.7147 27.04 15.7397H27.035ZM26.5 20.7097C25.52 22.9447 23.16 24.3347 20.66 23.9547C18.16 23.5747 16.305 21.5447 16.01 19.1197C15.96 18.7047 16.455 18.5147 16.77 18.7847C17.965 19.8247 19.45 20.5497 21.12 20.7997C22.79 21.0497 24.425 20.8047 25.865 20.1597C26.245 19.9897 26.665 20.3197 26.495 20.7047L26.5 20.7097Z" fill="black"/>
</svg>
